<svg xmlns="http://www.w3.org/2000/svg" xmlns:xlink="http://www.w3.org/1999/xlink" width="208.4" height="208.4" viewBox="0 0 208.4 208.4"><defs><clipPath id="clip-path"><rect id="Rectangle_8" data-name="Rectangle 8" width="140.656" height="155.05" fill="#25347a"></rect></clipPath><clipPath id="clip-path-2"><path id="Path_60" data-name="Path 60" d="M20.389,79.545A53.612,53.612,0,1,0,74,25.933,53.612,53.612,0,0,0,20.389,79.545" transform="translate(-20.389 -25.933)" fill="none"></path></clipPath><clipPath id="clip-path-3"><rect id="Rectangle_9" data-name="Rectangle 9" width="140.656" height="155.05" fill="none"></rect></clipPath></defs><g id="Group_4875" data-name="Group 4875" transform="translate(-846.013 13.933)"><path id="Path_67" data-name="Path 67" d="M20.389,130.134a104.2,104.2,0,1,0,104.2-104.2,104.2,104.2,0,0,0-104.2,104.2" transform="translate(825.624 -39.866)" fill="#fff"></path><g id="Group_7" data-name="Group 7" transform="translate(879.934 17.653)"><g id="Group_1" data-name="Group 1" transform="translate(0)" clip-path="url(#clip-path)"><path id="Path_1" data-name="Path 1" d="M2.6,141.9l.719.055a2.444,2.444,0,0,0,.318,2.017c.584.879,1.244.845,1.628.589,1.27-.845-1.38-3.292.379-4.462a1.808,1.808,0,0,1,2.5.786,2.781,2.781,0,0,1,.465,2.205l-.7-.069a2.234,2.234,0,0,0-.357-1.819c-.388-.584-.992-.8-1.457-.491-1.108.737,1.468,3.233-.372,4.457-.71.472-1.772.475-2.657-.855A2.945,2.945,0,0,1,2.6,141.9" transform="translate(-0.459 -25.529)" fill="#25347a"></path><path id="Path_2" data-name="Path 2" d="M7.16,149.482l4.164-3.22-1.145-1.482.519-.4,2.748,3.553-.52.4-1.151-1.489-4.165,3.22Z" transform="translate(-1.307 -26.357)" fill="#25347a"></path><path id="Path_3" data-name="Path 3" d="M9.939,153.349a.488.488,0,1,1-.06.687.491.491,0,0,1,.06-.687" transform="translate(-1.783 -27.974)" fill="#25347a"></path><path id="Path_4" data-name="Path 4" d="M14.219,157.476l.672-.115a1.388,1.388,0,0,0,.365,1.2,1.147,1.147,0,0,0,1.72-.029l2.934-2.9.518.524-2.94,2.909a1.744,1.744,0,0,1-2.667-.008,1.911,1.911,0,0,1-.6-1.578" transform="translate(-2.594 -28.411)" fill="#25347a"></path><path id="Path_5" data-name="Path 5" d="M20.48,160a2.945,2.945,0,1,1,.213,4.238A2.891,2.891,0,0,1,20.48,160m3.87,3.356a2.19,2.19,0,1,0-3.293-2.855,2.19,2.19,0,1,0,3.293,2.855" transform="translate(-3.589 -29.002)" fill="#25347a"></path><path id="Path_6" data-name="Path 6" d="M25.841,167.279l.694-.2a2.437,2.437,0,0,0,.994,1.782c.853.624,1.46.365,1.732-.008.9-1.233-2.431-2.613-1.184-4.319a1.808,1.808,0,0,1,2.622-.128,2.78,2.78,0,0,1,1.2,1.91l-.678.175a2.235,2.235,0,0,0-.963-1.584,1.061,1.061,0,0,0-1.537.042c-.786,1.075,2.494,2.528,1.189,4.311-.5.688-1.5,1.059-2.789.116a2.946,2.946,0,0,1-1.278-2.1" transform="translate(-4.717 -29.924)" fill="#25347a"></path><path id="Path_7" data-name="Path 7" d="M31.485,172.183l3.141-5.016,3.286,2.058-.348.557L34.9,168.114l-1.013,1.617,2.61,1.635-.348.557-2.61-1.634-1.083,1.73,2.662,1.667-.349.557Z" transform="translate(-5.748 -30.518)" fill="#25347a"></path><path id="Path_8" data-name="Path 8" d="M37.512,175.805l2.771-5.23,2.1,1.113a1.785,1.785,0,1,1-1.671,3.152l-1.45-.769-1.1,2.079Zm5-2.03A1.1,1.1,0,0,0,42,172.227l-1.372-.728-1.055,1.992,1.372.727a1.1,1.1,0,0,0,1.57-.443" transform="translate(-6.848 -31.14)" fill="#25347a"></path><path id="Path_9" data-name="Path 9" d="M47.844,180.765l1.075-2.495-3.18-1.37L44.664,179.4l-.677-.292,2.344-5.438.677.292L46,176.3l3.179,1.37,1.009-2.34.677.291-2.344,5.438Z" transform="translate(-8.03 -31.704)" fill="#25347a"></path><path id="Path_10" data-name="Path 10" d="M56.6,183.24a.954.954,0,1,1,1.2-.62.963.963,0,0,1-1.2.62" transform="translate(-10.21 -33.112)" fill="#25347a"></path><path id="Path_11" data-name="Path 11" d="M62.96,184.83l.552-.464a2.442,2.442,0,0,0,1.64,1.216c1.033.217,1.48-.269,1.575-.72.315-1.494-3.292-1.382-2.857-3.45a1.809,1.809,0,0,1,2.338-1.2,2.781,2.781,0,0,1,1.878,1.248l-.545.438a2.232,2.232,0,0,0-1.53-1.047c-.686-.145-1.269.123-1.384.67-.274,1.3,3.315,1.278,2.859,3.441-.176.834-.932,1.582-2.495,1.253a2.947,2.947,0,0,1-2.031-1.389" transform="translate(-11.494 -32.888)" fill="#25347a"></path><path id="Path_12" data-name="Path 12" d="M71.729,187.221l.71-5.214-1.856-.253.088-.651,4.45.606-.089.651-1.864-.254-.71,5.215Z" transform="translate(-12.886 -33.062)" fill="#25347a"></path><path id="Path_13" data-name="Path 13" d="M75.918,188.474a.488.488,0,1,1,.44.532.493.493,0,0,1-.44-.532" transform="translate(-13.859 -34.327)" fill="#25347a"></path><path id="Path_14" data-name="Path 14" d="M82.12,187.63l.4-.553a1.385,1.385,0,0,0,1.1.6,1.147,1.147,0,0,0,1.207-1.226l.056-4.126.737.011-.056,4.135a1.745,1.745,0,0,1-1.907,1.865,1.914,1.914,0,0,1-1.535-.7" transform="translate(-14.992 -33.285)" fill="#25347a"></path><path id="Path_15" data-name="Path 15" d="M88.635,185.888l-.211-3.615.744-.043.21,3.6a1.675,1.675,0,1,0,3.34-.195l-.21-3.6.745-.043.21,3.606a2.418,2.418,0,0,1-4.828.29" transform="translate(-16.142 -33.224)" fill="#25347a"></path><path id="Path_16" data-name="Path 16" d="M97.183,187.574l-.849-5.859,2-.289a2.961,2.961,0,1,1,.849,5.859Zm3.828-3.541a2.166,2.166,0,0,0-2.58-1.959l-1.274.185.66,4.56,1.274-.185a2.177,2.177,0,0,0,1.919-2.6" transform="translate(-17.587 -33.113)" fill="#25347a"></path><path id="Path_17" data-name="Path 17" d="M105.48,186.129l-1.306-5.773,3.782-.856.145.641-3.064.692.421,1.861,3-.679.145.64-3,.679.45,1.99,3.065-.692.145.64Z" transform="translate(-19.018 -32.769)" fill="#25347a"></path><path id="Path_18" data-name="Path 18" d="M116.254,182.807a.954.954,0,1,1,.614-1.2.965.965,0,0,1-.614,1.2" transform="translate(-20.994 -33.033)" fill="#25347a"></path><path id="Path_19" data-name="Path 19" d="M124.658,179.787l-4.585-4.442.771-.343,3.9,3.862-.249-5.483.771-.343.228,6.378Z" transform="translate(-21.92 -31.59)" fill="#25347a"></path><rect id="Rectangle_1" data-name="Rectangle 1" width="0.736" height="5.919" transform="translate(104.3 140.916) rotate(-27.237)" fill="#25347a"></rect><path id="Path_20" data-name="Path 20" d="M132.614,175.249l.1-.714a2.438,2.438,0,0,0,2.031-.2c.912-.532.916-1.193.684-1.591-.77-1.319-3.367,1.184-4.432-.639a1.808,1.808,0,0,1,.93-2.454,2.78,2.78,0,0,1,2.229-.336l-.11.691a2.233,2.233,0,0,0-1.837.251c-.6.353-.857.943-.575,1.426.671,1.149,3.313-1.278,4.427.631.43.736.371,1.8-1.008,2.6a2.946,2.946,0,0,1-2.436.333" transform="translate(-23.876 -30.891)" fill="#25347a"></path><rect id="Rectangle_2" data-name="Rectangle 2" width="0.737" height="5.92" transform="matrix(0.836, -0.549, 0.549, 0.836, 111.211, 136.924)" fill="#25347a"></rect><path id="Path_21" data-name="Path 21" d="M143.164,169.209l-3.117-4.241-1.508,1.109-.389-.53,3.618-2.659.389.529-1.516,1.115,3.116,4.24Z" transform="translate(-25.22 -29.737)" fill="#25347a"></path><path id="Path_22" data-name="Path 22" d="M150.574,163.779l-1.254-.672-2.25,1.9.454,1.349-.643.544-2-6.063.7-.591,5.64,2.985Zm-4.861-2.655,1.108,3.249,1.918-1.623Z" transform="translate(-26.449 -29.255)" fill="#25347a"></path><path id="Path_23" data-name="Path 23" d="M153.469,160.543l-3.665-3.777-1.344,1.3L148,157.6l3.223-3.128.458.472-1.35,1.31L154,160.029Z" transform="translate(-27.019 -28.2)" fill="#25347a"></path><rect id="Rectangle_3" data-name="Rectangle 3" width="0.736" height="5.921" transform="matrix(0.681, -0.732, 0.732, 0.681, 125.091, 125.298)" fill="#25347a"></rect><path id="Path_24" data-name="Path 24" d="M157.419,152.461a2.945,2.945,0,1,1,4.23-.334,2.891,2.891,0,0,1-4.23.334m3.243-3.963a2.189,2.189,0,1,0,.479,3.213,2.2,2.2,0,0,0-.479-3.213" transform="translate(-28.519 -26.863)" fill="#25347a"></path><path id="Path_25" data-name="Path 25" d="M167.693,143.341l-5.844.208,3.907,2.649-.414.61-4.9-3.322.423-.624,5.739-.226-3.826-2.594.414-.61,4.9,3.321Z" transform="translate(-29.29 -25.454)" fill="#25347a"></path><path id="Path_26" data-name="Path 26" d="M7.4,104.644a1.585,1.585,0,1,1-1.221,1.867A1.579,1.579,0,0,1,7.4,104.644" transform="translate(-1.122 -19.097)" fill="#25347a"></path><path id="Path_27" data-name="Path 27" d="M15.831,115.4l2.442,5.789-1.5.631-1.707-4.048-1.779.75,1.671,3.962-1.5.631-1.671-3.962-3.41,1.438-.734-1.742Z" transform="translate(-1.397 -21.067)" fill="#25347a"></path><path id="Path_28" data-name="Path 28" d="M16.359,133.365,14.3,129.973l-1.6.316-1.077-1.776L21,126.847l1.229,2.026L16.41,136.4l-1.07-1.764Zm-.394-3.808,1.525,2.516,2.724-3.364Z" transform="translate(-2.123 -23.157)" fill="#25347a"></path><path id="Path_29" data-name="Path 29" d="M29.7,141.892l-6.433,2.389-.55-.616,3.1-6.123L21.052,141.8l-1.259-1.41,6.624-5.913,1.764,1.977-2.694,5.3,5.567-2.079,1.773,1.986L26.2,147.567l-1.267-1.42Z" transform="translate(-3.613 -24.549)" fill="#25347a"></path><rect id="Rectangle_4" data-name="Rectangle 4" width="8.879" height="1.89" transform="matrix(0.645, -0.764, 0.764, 0.645, 25.562, 125.535)" fill="#25347a"></rect><path id="Path_30" data-name="Path 30" d="M41.549,148.882l1.565,1.061-4.049,5.973,3.107,2.107-.934,1.377-4.673-3.168Z" transform="translate(-6.675 -27.179)" fill="#25347a"></path><path id="Path_31" data-name="Path 31" d="M48.345,158.843l-.631-6.231,1.916.991.325,4.184,3.578-2.167,1.915.99-5.424,3.1-1.668,3.228-1.679-.867Z" transform="translate(-8.521 -27.861)" fill="#25347a"></path><path id="Path_32" data-name="Path 32" d="M68.212,161.022a4.593,4.593,0,1,1-5.552,3.424,4.461,4.461,0,0,1,5.552-3.424m-.379,1.633a2.924,2.924,0,1,0,1.972,3.452,2.686,2.686,0,0,0-1.972-3.452" transform="translate(-11.414 -29.37)" fill="#25347a"></path><path id="Path_33" data-name="Path 33" d="M77.707,162.695l6.264.5-.128,1.619-4.38-.349-.154,1.925,4.287.341-.129,1.619-4.287-.342-.294,3.69L77,171.547Z" transform="translate(-14.057 -29.701)" fill="#25347a"></path><path id="Path_34" data-name="Path 34" d="M93.43,162.707l4.1-.648a2.852,2.852,0,1,1,.889,5.627l-2.235.353.5,3.142-1.867.3Zm4.106.995-1.986.314.383,2.42,1.985-.315a1.227,1.227,0,1,0-.383-2.419" transform="translate(-17.056 -29.576)" fill="#25347a"></path><path id="Path_35" data-name="Path 35" d="M111.284,166.194l-3.788,1.183L107.418,169l-1.981.62.632-9.5,2.262-.706,5.913,7.458-1.97.615Zm-3.793-.531,2.809-.877-2.612-3.453Z" transform="translate(-19.248 -29.103)" fill="#25347a"></path><path id="Path_36" data-name="Path 36" d="M120.281,160.422l-1.237.622,1.429,2.843-1.69.849L114.8,156.8l3.711-1.865a2.766,2.766,0,0,1,3.951,1.219,2.549,2.549,0,0,1-.553,3.228l3.3,2.125-1.939.974Zm-1.294-3.909-1.772.891,1.1,2.189,1.772-.891a1.229,1.229,0,1,0-1.1-2.189" transform="translate(-20.957 -28.215)" fill="#25347a"></path><rect id="Rectangle_5" data-name="Rectangle 5" width="1.891" height="8.88" transform="translate(102.183 124.051) rotate(-33.484)" fill="#25347a"></rect><path id="Path_37" data-name="Path 37" d="M134.172,152.337a3.893,3.893,0,0,0,2.932-.9c.8-.667.867-1.37.543-1.757-.428-.51-1.166-.187-2.1.288-1.326.677-3.011,1.569-4.285.048-.949-1.132-.74-2.871.862-4.214a4.935,4.935,0,0,1,3.448-1.275l.084,1.736a3.788,3.788,0,0,0-2.573.889c-.652.547-.76,1.124-.419,1.532.385.459,1.077.123,2.016-.352,1.336-.686,3.047-1.547,4.313-.037,1.043,1.245.943,2.927-.894,4.467a5.117,5.117,0,0,1-3.794,1.339Z" transform="translate(-23.858 -26.384)" fill="#25347a"></path><path id="Path_38" data-name="Path 38" d="M145.706,138.965l-2.737,3.177,2.823,2.434-1.234,1.432-6.726-5.8,1.234-1.432,2.643,2.277,2.737-3.177L141.8,135.6l1.243-1.442,6.728,5.8L148.53,141.4Z" transform="translate(-25.162 -24.492)" fill="#25347a"></path><path id="Path_39" data-name="Path 39" d="M145.978,130.376l3.287-5.356,1.384.849-2.3,3.745,1.645,1.01,2.25-3.665,1.384.849-2.249,3.665,1.758,1.08,2.3-3.745,1.4.857-3.287,5.356Z" transform="translate(-26.649 -22.823)" fill="#25347a"></path><path id="Path_40" data-name="Path 40" d="M157.314,123.271a3.894,3.894,0,0,0,2.208-2.128c.406-.956.151-1.614-.314-1.812-.612-.26-1.123.361-1.745,1.211-.875,1.2-1.972,2.764-3.8,1.986-1.36-.579-1.962-2.223-1.143-4.147a4.941,4.941,0,0,1,2.495-2.7l.862,1.51a3.794,3.794,0,0,0-1.89,1.959c-.334.784-.168,1.346.322,1.555.551.235,1.014-.378,1.637-1.228.88-1.217,2.014-2.76,3.827-1.988,1.494.636,2.168,2.182,1.229,4.386a5.12,5.12,0,0,1-2.774,2.914Z" transform="translate(-27.776 -21.118)" fill="#25347a"></path><path id="Path_41" data-name="Path 41" d="M163.189,107.791a1.584,1.584,0,1,1,1.857-1.236,1.58,1.58,0,0,1-1.857,1.236" transform="translate(-29.56 -19.105)" fill="#25347a"></path><path id="Path_42" data-name="Path 42" d="M0,88.285l.593-4.978c.471-3.956,3.315-6.4,7.12-5.948s5.976,3.495,5.5,7.45l-.592,4.978Zm10.852-3.757A3.806,3.806,0,0,0,7.386,80.1a3.721,3.721,0,0,0-4.427,3.486l-.272,2.29,7.892.939Z" transform="translate(0 -14.113)" fill="#25347a"></path><rect id="Rectangle_6" data-name="Rectangle 6" width="2.707" height="12.715" transform="translate(2.421 59.217) rotate(-74.302)" fill="#25347a"></rect><path id="Path_43" data-name="Path 43" d="M4.5,63.388l1.275-2.812,10.362.829L8.682,54.171l1.276-2.812,9.554,9.714-1.4,3.09Z" transform="translate(-0.822 -9.376)" fill="#25347a"></path><rect id="Rectangle_7" data-name="Rectangle 7" width="2.707" height="12.716" transform="matrix(0.546, -0.838, 0.838, 0.546, 10.751, 39.861)" fill="#25347a"></rect><path id="Path_44" data-name="Path 44" d="M22.544,40.741l6.336,5.725-1.815,2.008L17.632,39.95,19.5,37.886l10.059,1.151-6.11-5.521,1.815-2.008,9.434,8.524-1.751,1.937Z" transform="translate(-3.219 -5.752)" fill="#25347a"></path><path id="Path_45" data-name="Path 45" d="M31.17,26.768l7.267-5.305,1.372,1.878-5.081,3.71,1.63,2.232,4.973-3.63L42.7,27.53l-4.973,3.631,1.742,2.386,5.081-3.71,1.382,1.894-7.267,5.306Z" transform="translate(-5.69 -3.918)" fill="#25347a"></path><path id="Path_46" data-name="Path 46" d="M135.648,29.92l-8.357,5.167-.945-.709,2.624-9.468-5.491,7.318L121.315,30.6l7.63-10.168,3.034,2.276-2.289,8.195,7.228-4.489,3.049,2.287-7.629,10.169-2.18-1.636Z" transform="translate(-22.147 -3.731)" fill="#25347a"></path><path id="Path_47" data-name="Path 47" d="M145.909,34.763l5.808,6.872-1.775,1.5-4.061-4.8-2.111,1.784,3.974,4.7-1.775,1.5-3.975-4.7-2.257,1.908,4.061,4.8-1.791,1.514L136.2,42.971Z" transform="translate(-24.864 -6.346)" fill="#25347a"></path><path id="Path_48" data-name="Path 48" d="M150.647,55.218l-.967-1.73L145.7,55.711l-1.321-2.362,11.1-6.2,2.9,5.191a3.959,3.959,0,0,1-1.493,5.726,3.648,3.648,0,0,1-4.652-.587l-2.831,4.857-1.516-2.711Zm5.51-2.1-1.386-2.478-3.061,1.711,1.386,2.479a1.76,1.76,0,1,0,3.061-1.712" transform="translate(-26.358 -8.607)" fill="#25347a"></path><path id="Path_49" data-name="Path 49" d="M157.317,64.152a6.435,6.435,0,0,1,8.253,4.431,5.866,5.866,0,0,1-1.369,6.089l-1.78-1.883a3.482,3.482,0,0,0,.854-3.5,4.185,4.185,0,0,0-7.976,2.466,3.448,3.448,0,0,0,2.679,2.4l-.387,2.554a5.9,5.9,0,0,1-4.585-4.248,6.434,6.434,0,0,1,4.311-8.316" transform="translate(-27.872 -11.652)" fill="#25347a"></path><path id="Path_50" data-name="Path 50" d="M160.877,83.813l7-5.6.3,3.074-4.78,3.64,5.385,2.621.3,3.074-7.942-4.117-5.179.5-.26-2.693Z" transform="translate(-28.424 -14.279)" fill="#25347a"></path><path id="Path_51" data-name="Path 51" d="M99.462,19.113A19.113,19.113,0,1,1,80.349,0,19.113,19.113,0,0,1,99.462,19.113" transform="translate(-11.179)" fill="#ffce02"></path><path id="Path_52" data-name="Path 52" d="M106.031,51.231a3.7,3.7,0,0,0-.123-.378,33.569,33.569,0,0,0-2.479-4.2c-.969-1.541-4.876-7.883-5.28-8.54a9.332,9.332,0,0,1-.989-2.058,10.427,10.427,0,0,1-.443-1.366,3.146,3.146,0,0,0-.64-1.516c-.233-.271-.459-.549-.687-.824a17.921,17.921,0,0,0-1.577-.957,8.746,8.746,0,0,0-1.646-.575c-.448-.114-.924-.114-1.384-.187a2.193,2.193,0,0,1-1.273-.647.558.558,0,0,1-.015-.758,1.708,1.708,0,0,0-.34-2.152,3.525,3.525,0,0,1-.715-1.25c-.055-.181-.15-.443-.07-.553a1.474,1.474,0,0,0,.15-.97c.013-.829,0-1.659,0-2.487a9.014,9.014,0,0,0-.306-2.1,10.892,10.892,0,0,1-.2-1.2,11.476,11.476,0,0,0-1.941-4.354,5.672,5.672,0,0,0-1.384-1.21c-.418-.262-.759-.643-1.159-.938a1.991,1.991,0,0,0-2.1-.459c-.5-.094-.837.365-1.3.376s-.92-.04-1.372.011a4.528,4.528,0,0,0-2.627,1.117,6.666,6.666,0,0,0-1.631,2.676,13.886,13.886,0,0,0-.41,3.352c.056.508,0,1.028.014,1.543s-.189.965-.21,1.471a3.048,3.048,0,0,1-.544,1.134,4.031,4.031,0,0,0-.458,1.786,6.181,6.181,0,0,0,.522,2.874c.054.12.121.235.209.4a1.864,1.864,0,0,1-.378.276,1.519,1.519,0,0,0-.818,1.149,1.394,1.394,0,0,1-.611.858,42.068,42.068,0,0,1-4.669,2.8.651.651,0,0,1-.256,0,2.075,2.075,0,0,0-.862,1.041,23.1,23.1,0,0,0-1.025,2.219,2.2,2.2,0,0,1,.376.123c1.286.685,2.582,1.363,3.815,2.129,2.183,1.357,4.383,2.694,6.477,4.194,1.219.874,2.507,1.65,3.755,2.483a3.619,3.619,0,0,1,.51.509c.209-.3.427-.585.627-.887.6-.915,1.238-1.807,1.8-2.756a2.149,2.149,0,0,1,2.047-1.17c.682.04,1.368.007,2.051.007.459-.386,1.5,1.683,2.119,1.749.477.051,1.762,2.317,2.268,2.317a1.372,1.372,0,0,1-.117-.956c.042-.222,1.22.294,1.489.419.982.46,1.1.337,2.091.783a4.213,4.213,0,0,1,1.2.846,10.927,10.927,0,0,0,1.037.8c.4-.067,4.183,2.1,4.162,2.456,0,.629-3.681.771-4.122-.529-.066-.2-1.128-.316-1.474-.337a2.668,2.668,0,0,1-.963-.085,2.932,2.932,0,0,0-1-.077c-.342-.01-2.662-.979-3-.979.286.593,12,19.71,12.621,20.846a5.32,5.32,0,0,0,.406.564c.215-.337.387-.637.589-.917a23.092,23.092,0,0,0,1.854-3.242c.069-.137.857-2.283,1.107-3.139.092-.316.492-2.315.493-2.6a20.3,20.3,0,0,0-.34-5.494,10.534,10.534,0,0,0-.851-2.465" transform="translate(-11.868 -2.082)" fill="#25347a"></path><path id="Path_53" data-name="Path 53" d="M64.4,57.06a25.065,25.065,0,0,1-.67,2.622,6.526,6.526,0,0,1-2.14,2.887,7,7,0,0,1-4.313,1.792,22.754,22.754,0,0,1-2.787-.112,5.557,5.557,0,0,1-1.932-.5,8.244,8.244,0,0,1-.839-.431,11.383,11.383,0,0,1-5-10.843c.311-.929.218-3.155,2.062-6.159a8.49,8.49,0,0,1,2.2-2.023,11.327,11.327,0,0,0,1.749-1.229c.353-.332.68-.692,1.032-1.024.879-.831,1.776-1.644,2.642-2.489a.773.773,0,0,1,.617-.172,6.835,6.835,0,0,1-.092.732c-.156.477-.307.972-.46,1.446-.162.5-.12,1.011-.268,1.511a5.622,5.622,0,0,0-.029,1.79,3.155,3.155,0,0,0,.17.871,14.732,14.732,0,0,0,.611,1.547c.14.293.458.45.627.767.146.275.549.412.873.634a3.461,3.461,0,0,0,.617-.674,27.568,27.568,0,0,0,1.39-3.285c.375-1.045,2.446-5.055,2.846-6.091.126.04-1.389,3.044-1.274,3.105,1.286.685,4.233-1.619,5.466-.853,2.183,1.357,4.382,2.693,6.476,4.194,1.219.873,2.507,1.65,3.755,2.483a3.617,3.617,0,0,1,.51.509c-.352.79-2.515,4.46-3.02,5.156s-.814,1.48-1.377,2.117h0c-.546.861-1.081,1.729-1.64,2.58-.933,1.418-4.054,6.128-4.668,7.076-.132.2-.252.412-.388.611s-.274.371-.436.589c-.043-.126-.138-1.789-.267-2.554-.089-.526-.209-1.053-.33-1.576-.15-.648-.335-1.289-.51-1.932-.168-.616-.338-1.232-.516-1.845A6.6,6.6,0,0,0,64.4,57.06" transform="translate(-8.508 -7.052)" fill="#25347a"></path><path id="Path_54" data-name="Path 54" d="M63.75,38.427c-.4,1.036-.821,2.064-1.2,3.109-.4,1.122-1.816,5-2.277,5.076-.409-.053-1.951-3.175-2.15-4.52-.184-1.237.934-5.657.988-5.895.451-.669.343-.879,2.9-1.775a5.283,5.283,0,0,0-.374-2.133,6.862,6.862,0,0,0-.292-.821,6.857,6.857,0,0,1-.333-.888,10.539,10.539,0,0,1,.077-3.331c.155-.423.654-1.955.725-2.08s.377-1.083.526-1.411c.5-1.091,1.181-2.756,1.919-2.563.734.387.266,1.077.248,1.467.279-.248.665-.144.947.257.119.49-1,2.129-1.458,3.145a1.861,1.861,0,0,0-.121,1.47c.145.446.249.928.41,1.377s.327,1.009,1,.884c.353-.253.543-1.036.7-1.57a3.919,3.919,0,0,1,.656-1.187.575.575,0,0,1,.893-.232c.2.1.3.49.269.842a10.724,10.724,0,0,1-.24,1.756c-.367,1.063-.49,2.259-.728,3a5.245,5.245,0,0,1-.81,1.816,21.024,21.024,0,0,0-1.249,1.987,23.093,23.093,0,0,0-1.025,2.219" transform="translate(-10.608 -3.867)" fill="#25347a"></path><path id="Path_55" data-name="Path 55" d="M63.75,38.427c-.4,1.036-.821,2.064-1.2,3.109-.4,1.122-1.816,5-2.277,5.076-.409-.053-1.951-3.175-2.15-4.52-.184-1.237.934-5.657.988-5.895.451-.669.343-.879,2.9-1.775a5.283,5.283,0,0,0-.374-2.133,6.862,6.862,0,0,0-.292-.821,6.857,6.857,0,0,1-.333-.888,10.539,10.539,0,0,1,.077-3.331c.155-.423.654-1.955.725-2.08s.377-1.083.526-1.411c.5-1.091,1.181-2.756,1.919-2.563.734.387.266,1.077.248,1.467.279-.248.665-.144.947.257.119.49-1,2.129-1.458,3.145a1.861,1.861,0,0,0-.121,1.47c.145.446.249.928.41,1.377s.327,1.009,1,.884c.353-.253.543-1.036.7-1.57a3.919,3.919,0,0,1,.656-1.187.575.575,0,0,1,.893-.232c.2.1.3.49.269.842a10.724,10.724,0,0,1-.24,1.756c-.367,1.063-.49,2.259-.728,3a5.245,5.245,0,0,1-.81,1.816,21.024,21.024,0,0,0-1.249,1.987A23.093,23.093,0,0,0,63.75,38.427Z" transform="translate(-10.608 -3.867)" fill="#25347a" stroke="#fff" stroke-miterlimit="10" stroke-width="0.54"></path></g><g id="Group_4" data-name="Group 4" transform="translate(16.667 21.199)"><g id="Group_3" data-name="Group 3" clip-path="url(#clip-path-2)"><path id="Path_56" data-name="Path 56" d="M73.091,50.053,5.265,146.941H42.208Z" transform="translate(-17.628 -30.336)" fill="#c22032"></path><path id="Path_57" data-name="Path 57" d="M92.376,55.887l56.695,92.119H104.4Z" transform="translate(-33.531 -31.401)" fill="#8cb6e1"></path><path id="Path_58" data-name="Path 58" d="M80.06,65.145l-4.1,84.551H53.791Z" transform="translate(-26.487 -33.091)" fill="#c22032"></path><path id="Path_59" data-name="Path 59" d="M88.42,53.092l12.54,94.4H83.7Z" transform="translate(-31.947 -30.891)" fill="#8cb6e1"></path></g></g><g id="Group_6" data-name="Group 6" transform="translate(0)"><g id="Group_5" data-name="Group 5" clip-path="url(#clip-path-3)"><path id="Path_61" data-name="Path 61" d="M64.246,32.166c-.212.073-.524-.275-.7-.777s-.142-.969.069-1.041.524.275.7.777.142.969-.069,1.041" transform="translate(-11.581 -5.538)" fill="#fff"></path><path id="Path_62" data-name="Path 62" d="M108.419,53.894s.223,3.062.13,4.4a18.382,18.382,0,0,1-.8,4.578c-.589,2.188-.242,2.474.181,3.052" transform="translate(-19.613 -9.839)" fill="#072768"></path><path id="Path_63" data-name="Path 63" d="M108.419,53.894s.223,3.062.13,4.4a18.382,18.382,0,0,1-.8,4.578c-.589,2.188-.242,2.474.181,3.052" transform="translate(-19.613 -9.839)" fill="none" stroke="#fff" stroke-linecap="round" stroke-miterlimit="10" stroke-width="0.591"></path><path id="Path_64" data-name="Path 64" d="M104.941,59.76c-.155,0-.26-.06-2.047-1.663-.674-.6-1.584-1.421-1.827-1.58l-.454.092a4.807,4.807,0,0,1-.61.1c-.065,0-.132.007-.2.007a3.781,3.781,0,0,1-.408-.025,6.156,6.156,0,0,1-1.152-.265c-.392-.125-.779-.266-1.158-.419-.106-.043-.571-.244-.571-.244a1.593,1.593,0,0,1-.51-.293,2.265,2.265,0,0,1-.471-.446l-.15-.179c-.088-.106-.176-.213-.27-.314-.188-.2-.333-.362-.46-.532a1.408,1.408,0,0,1-.373-1.06,3.669,3.669,0,0,1-.336-.369,1.612,1.612,0,0,1-.374-1.431l-.045-.038a1.83,1.83,0,0,1-.492-.609A.578.578,0,0,1,93,50.14a5.3,5.3,0,0,1-.49-.275c-.3-.188-.571-.4-.849-.61-.139-.105-.278-.212-.419-.315a1.1,1.1,0,0,1-.45-.484.569.569,0,0,1,.307-.719.74.74,0,0,1,.288-.055,1.58,1.58,0,0,1,.5.1c.241.083.481.177.715.274q.38.156.757.316l.3.132c.149.066.3.132.448.193a10.271,10.271,0,0,0,1.42.414l.1.024c.222.053.446.1.669.152.3.067.607.134.908.211.1.025.193.046.289.064a.746.746,0,0,0-.054-.133,2.9,2.9,0,0,0-.15-.251c-.048-.075-.1-.15-.139-.227a6.478,6.478,0,0,1-.489-1.01,1.356,1.356,0,0,1,.011-1.136.558.558,0,0,1,.461-.27.781.781,0,0,1,.556.365c.182.229.318.393.465.549.123.128.253.251.383.373l.255.242c.276.262.553.526.822.795.165.164.325.331.483.5a5.414,5.414,0,0,1,.432.508,6.683,6.683,0,0,1,.546.972l.043.087c.084.171.17.34.264.507a2.34,2.34,0,0,0,.29.432l.324.357a1.624,1.624,0,0,0,.191.191,1.126,1.126,0,0,1,.382.211l.969.262c1.7.459,1.7.483,1.742.665l.023.1a11.843,11.843,0,0,1,.339,2.739,12.039,12.039,0,0,1-.519,3.285l-.042.048-.06.02Z" transform="translate(-16.568 -8.495)" fill="#072768"></path><path id="Path_65" data-name="Path 65" d="M97.081,46.716a.2.2,0,0,1,.038,0c.178.025.286.216.384.338.138.171.278.341.43.5s.321.315.484.469c.329.312.66.624.98.943q.243.243.477.495a5.032,5.032,0,0,1,.413.485,6.969,6.969,0,0,1,.57,1.026c.086.175.174.347.27.518a2.612,2.612,0,0,0,.32.474c.106.12.216.239.324.358a1.719,1.719,0,0,0,.248.239h0a1.025,1.025,0,0,1,.335.178c.094.087,2.617.687,2.641.8a12.085,12.085,0,0,1,.358,2.789,13.963,13.963,0,0,1-.463,3.139h0c-.209,0-3.623-3.251-3.839-3.251h-.006c-.177.038-.356.069-.53.1a4.585,4.585,0,0,1-.581.1c-.06,0-.12.007-.181.007a3.324,3.324,0,0,1-.383-.024,5.88,5.88,0,0,1-1.108-.255c-.386-.123-.768-.263-1.143-.414-.191-.076-.378-.165-.568-.243a1.424,1.424,0,0,1-.447-.254v0a2.036,2.036,0,0,1-.446-.416c-.141-.167-.275-.338-.424-.5s-.31-.334-.446-.514c-.2-.266-.465-.668-.287-.983a3.729,3.729,0,0,1-.425-.449,1.33,1.33,0,0,1-.283-1.357h0c-.056-.047-.11-.094-.164-.142a1.638,1.638,0,0,1-.434-.528.331.331,0,0,1-.015-.249.267.267,0,0,1,.091-.113,5.767,5.767,0,0,1-.694-.372c-.439-.28-.837-.611-1.256-.916a.924.924,0,0,1-.369-.375.334.334,0,0,1,.18-.427.5.5,0,0,1,.2-.037,1.357,1.357,0,0,1,.428.091c.237.081.472.174.7.269q.378.155.753.316c.252.107.5.224.752.326a10.982,10.982,0,0,0,1.553.447c.523.126,1.052.229,1.573.363a5.091,5.091,0,0,0,.611.114,1.05,1.05,0,0,0-.111-.515c-.086-.168-.2-.32-.293-.485a6.3,6.3,0,0,1-.473-.974,1.108,1.108,0,0,1-.012-.935.327.327,0,0,1,.266-.163m0-.463a.785.785,0,0,0-.657.377,1.564,1.564,0,0,0-.034,1.338,6.662,6.662,0,0,0,.506,1.047c.029.052.06.1.092.154-.232-.056-.466-.108-.7-.159s-.441-.1-.66-.15l-.106-.026a9.711,9.711,0,0,1-1.381-.4c-.148-.06-.293-.125-.439-.19-.1-.045-.2-.09-.3-.133q-.379-.162-.759-.318c-.24-.1-.483-.195-.728-.279a1.788,1.788,0,0,0-.578-.116.963.963,0,0,0-.379.074.8.8,0,0,0-.433,1.011,1.223,1.223,0,0,0,.492.564l.039.029c.14.1.276.205.414.31.275.21.559.428.866.622q.175.113.37.216a.835.835,0,0,0,.07.311,1.92,1.92,0,0,0,.493.638,1.9,1.9,0,0,0,.45,1.493,3.591,3.591,0,0,0,.268.3,1.737,1.737,0,0,0,.437,1.12c.137.183.288.347.433.505l.041.044c.092.1.178.205.265.309l.149.178a2.538,2.538,0,0,0,.5.476,1.866,1.866,0,0,0,.568.326c.085.035.169.073.253.11.105.047.211.092.318.136.417.167.8.306,1.175.425a6.342,6.342,0,0,0,1.2.274,3.882,3.882,0,0,0,.436.026c.072,0,.145,0,.216-.007a4.381,4.381,0,0,0,.571-.092l.069-.014.217-.043.141-.027c.311.237,1.112.956,1.717,1.5,1.925,1.726,1.963,1.726,2.206,1.726h.076l.076-.025.121-.041.083-.1a11.2,11.2,0,0,0,.575-3.432,12.031,12.031,0,0,0-.347-2.8l-.02-.094c-.072-.347-.211-.384-1.908-.843-.356-.1-.791-.214-.941-.266a1.48,1.48,0,0,0-.356-.19c-.04-.036-.083-.084-.126-.131L102,51.891l-.209-.231a2.241,2.241,0,0,1-.262-.393c-.091-.163-.176-.328-.257-.495l-.038-.08a6.8,6.8,0,0,0-.571-1.013,5.617,5.617,0,0,0-.45-.53q-.239-.258-.489-.507c-.275-.275-.557-.543-.84-.811l-.148-.141-.1-.1c-.123-.116-.247-.232-.363-.355-.144-.15-.275-.311-.405-.472l-.043-.056a.981.981,0,0,0-.635-.45l-.034,0Z" transform="translate(-16.516 -8.444)" fill="#fff"></path><path id="Path_66" data-name="Path 66" d="M100.177,53.847c-.091.2-.558.2-1.044-.02s-.805-.556-.714-.761.558-.2,1.044.02.805.557.714.761" transform="translate(-17.964 -9.661)" fill="#fff"></path></g></g></g></g></svg>